Coordinates
version=1
nRows=30
nColumns=38
inDegrees=no

Units are S.I. units (second, meters, Newtons, ...)
If the header above contains a line with 'inDegrees', this indicates whether rotational values are in degrees (yes) or radians (no).

endheader
time	pelvis_tilt	pelvis_list	pelvis_rotation	pelvis_tx	pelvis_ty	pelvis_tz	hip_flexion_r	hip_adduction_r	hip_rotation_r	knee_angle_r	ankle_angle_r	subtalar_angle_r	mtp_angle_r	hip_flexion_l	hip_adduction_l	hip_rotation_l	knee_angle_l	ankle_angle_l	subtalar_angle_l	mtp_angle_l	lumbar_extension	lumbar_bending	lumbar_rotation	arm_flex_r	arm_add_r	arm_rot_r	elbow_flex_r	pro_sup_r	wrist_flex_r	wrist_dev_r	arm_flex_l	arm_add_l	arm_rot_l	elbow_flex_l	pro_sup_l	wrist_flex_l	wrist_dev_l
1.06	-0.155149	0.0433792	-0.0519903	0.997388	1.00014	-0.346095	0.67898	-0.0186148	0.0899572	-1.53985	0.131385	0.0188018	-3.29375e-06	0.187442	0.120464	-0.0855705	-0.641578	0.346192	0.0810289	-2.54376e-06	-0.0424043	-0.0617958	-0.0223503	-0.630217	-0.290517	-0.140033	1.64085	1.96576	0.0750904	0.0825441	-0.38582	-0.173388	-0.179593	1.99336	1.77736	0.1	0.0919909
1.07	-0.160125	0.0329179	-0.0636165	0.99965	1.00697	-0.345212	0.700556	-0.00757155	0.0783385	-1.47619	0.140104	0.0188018	-3.29375e-06	0.136569	0.106854	-0.0967334	-0.590134	0.281313	0.0810289	-2.54376e-06	-0.0308477	-0.0459179	-0.0246783	-0.662109	-0.292122	-0.150722	1.67351	1.94946	0.0750904	0.0825441	-0.396355	-0.172329	-0.178681	2.03892	1.77152	0.1	0.0919909
1.08	-0.165181	0.0219078	-0.0748163	1.00211	1.01395	-0.344241	0.716621	0.00441855	0.0642319	-1.40346	0.146759	0.0188018	-3.29375e-06	0.0885379	0.0926311	-0.109689	-0.541223	0.207038	0.0810289	-2.54376e-06	-0.0193967	-0.0294625	-0.0259081	-0.692889	-0.29202	-0.16232	1.70454	1.93465	0.0750904	0.0825441	-0.407293	-0.172477	-0.176283	2.08374	1.76901	0.1	0.0919909
1.09	-0.170007	0.0108547	-0.0854544	1.00468	1.0209	-0.34318	0.726946	0.0173431	0.0495217	-1.3222	0.151442	0.0188018	-3.29375e-06	0.0439247	0.0784138	-0.123567	-0.496545	0.126649	0.0810289	-2.54376e-06	-0.00860695	-0.0131167	-0.0263678	-0.721701	-0.290451	-0.174081	1.73289	1.92075	0.0750904	0.0825441	-0.418217	-0.173883	-0.172516	2.12674	1.7695	0.1	0.0919909
1.1	-0.174287	0.000343035	-0.0953596	1.00727	1.02765	-0.342049	0.731435	0.0310614	0.036309	-1.23318	0.154405	0.0188018	-3.29375e-06	0.00317796	0.0649432	-0.137115	-0.457706	0.0439192	0.0810289	-2.54376e-06	0.00102995	0.00236784	-0.0264692	-0.747798	-0.287772	-0.185262	1.75803	1.90735	0.0750904	0.0825441	-0.428926	-0.176483	-0.167619	2.16724	1.77216	0.1	0.0919909
1.11	-0.177703	-0.00900968	-0.104357	1.00979	1.03403	-0.34088	0.730156	0.0452471	0.0266641	-1.13745	0.156061	0.0188018	-3.29375e-06	-0.033374	0.0530198	-0.148897	-0.426196	-0.0371877	0.0810289	-2.54376e-06	0.00910689	0.0162433	-0.0265996	-0.770599	-0.284368	-0.195274	1.77988	1.89442	0.0750904	0.0825441	-0.439344	-0.180137	-0.161852	2.20479	1.77579	0.1	0.0919909
1.12	-0.179972	-0.0166288	-0.112302	1.01221	1.0399	-0.339722	0.723382	0.0593933	0.0223495	-1.03645	0.156958	0.0188018	-3.29375e-06	-0.0654995	0.0434038	-0.157553	-0.403364	-0.112831	0.0810289	-2.54376e-06	0.0153186	0.0278546	-0.0270304	-0.789736	-0.280585	-0.203773	1.7987	1.88235	0.0750904	0.0825441	-0.449439	-0.184646	-0.155415	2.239	1.7791	0.1	0.0919909
1.13	-0.180861	-0.0220797	-0.119106	1.01447	1.04512	-0.338624	0.711613	0.0728663	0.0245125	-0.932138	0.157736	0.0188018	-3.29375e-06	-0.0930487	0.0366775	-0.162105	-0.390381	-0.179613	0.0810289	-2.54376e-06	0.0194588	0.036748	-0.0278531	-0.805054	-0.276686	-0.210684	1.81494	1.8717	0.0750904	0.0825441	-0.459153	-0.189785	-0.148398	2.26949	1.78103	0.1	0.0919909
1.14	-0.180228	-0.0251512	-0.124759	1.01656	1.04957	-0.337633	0.695592	0.0850117	0.0334646	-0.826918	0.159058	0.0188018	-3.29375e-06	-0.115924	0.0331233	-0.162189	-0.3882	-0.23486	0.0810289	-2.54376e-06	0.0214195	0.0427531	-0.0289658	-0.816593	-0.272848	-0.216158	1.82918	1.86305	0.0750904	0.0825441	-0.468366	-0.195306	-0.140786	2.29583	1.78095	0.1	0.0919909
1.15	-0.178045	-0.0259055	-0.129331	1.01844	1.05315	-0.336787	0.676287	0.095284	0.0485983	-0.723624	0.161481	0.0188018	-3.29375e-06	-0.134044	0.0326383	-0.158156	-0.397521	-0.27686	0.0810289	-2.54376e-06	0.0211899	0.0460217	-0.0301048	-0.824533	-0.26919	-0.220486	1.84197	1.85678	0.0750904	0.0825441	-0.476909	-0.200951	-0.132513	2.31757	1.77878	0.1	0.0919909
1.16	-0.174414	-0.0246742	-0.132956	1.02009	1.0558	-0.336103	0.654846	0.10336	0.0684625	-0.625336	0.165301	0.0188018	-3.29375e-06	-0.14731	0.034707	-0.151034	-0.418767	-0.305001	0.0810289	-2.54376e-06	0.0188562	0.0470077	-0.0309123	-0.82913	-0.265824	-0.223994	1.8538	1.85307	0.0750904	0.0825441	-0.484592	-0.206448	-0.123533	2.33425	1.77497	0.1	0.0919909
1.17	-0.169544	-0.0220042	-0.135803	1.02151	1.05747	-0.335581	0.632499	0.109204	0.0909867	-0.535155	0.170399	0.0188018	-3.29375e-06	-0.155591	0.0384344	-0.142349	-0.45207	-0.319804	0.0810289	-2.54376e-06	0.0145983	0.0463926	-0.0310217	-0.830656	-0.262892	-0.226946	1.86501	1.85184	0.0750904	0.0825441	-0.491265	-0.21152	-0.113889	2.34553	1.77041	0.1	0.0919909
1.18	-0.163727	-0.0185816	-0.138036	1.02269	1.05815	-0.335209	0.610443	0.113077	0.113793	-0.45595	0.176189	0.0188018	-3.29375e-06	-0.158723	0.0426231	-0.133878	-0.497286	-0.322771	0.0810289	-2.54376e-06	0.00867115	0.0449806	-0.0301398	-0.829349	-0.260596	-0.229481	1.87578	1.85271	0.0750904	0.0825441	-0.496855	-0.215901	-0.103739	2.3512	1.76617	0.1	0.0919909
1.19	-0.157307	-0.0151287	-0.13977	1.0236	1.05784	-0.334959	0.589746	0.115479	0.134581	-0.390135	0.181673	0.0188018	-3.29375e-06	-0.156537	0.0459029	-0.127354	-0.553991	-0.316111	0.0810289	-2.54376e-06	0.00139554	0.0435764	-0.0281022	-0.825395	-0.25918	-0.231597	1.88616	1.85513	0.0750904	0.0825441	-0.501393	-0.219362	-0.0933463	2.35128	1.76335	0.1	0.0919909
1.2	-0.150649	-0.0123036	-0.14105	1.02425	1.05655	-0.334801	0.571308	0.117061	0.151493	-0.33955	0.185626	0.0188018	-3.29375e-06	-0.14889	0.0468952	-0.12419	-0.621464	-0.302359	0.0810289	-2.54376e-06	-0.00685326	0.0428719	-0.0248863	-0.818912	-0.258902	-0.233171	1.896	1.85836	0.0750904	0.0825441	-0.505	-0.221736	-0.0830332	2.3459	1.76286	0.1	0.0919909
1.21	-0.14412	-0.0106182	-0.141856	1.02461	1.05426	-0.334699	0.555867	0.118524	0.163383	-0.305455	0.186858	0.0188018	-3.29375e-06	-0.135723	0.0443869	-0.125271	-0.698645	-0.283968	0.0810289	-2.54376e-06	-0.0156713	0.0433675	-0.0205776	-0.809951	-0.259985	-0.234006	1.90502	1.86168	0.0750904	0.0825441	-0.507844	-0.222938	-0.0731226	2.33535	1.76542	0.1	0.0919909
1.22	-0.138055	-0.0103827	-0.142137	1.02466	1.05098	-0.33462	0.544001	0.120529	0.169922	-0.288574	0.184522	0.0188018	-3.29375e-06	-0.117113	0.0374883	-0.130844	-0.784118	-0.262938	0.0810289	-2.54376e-06	-0.024686	0.0453408	-0.0153037	-0.798485	-0.262572	-0.23387	1.91275	1.86437	0.0750904	0.0825441	-0.510074	-0.222977	-0.0638764	2.31988	1.77147	0.1	0.0919909
1.23	-0.132707	-0.0116916	-0.141857	1.02439	1.04668	-0.334527	0.536101	0.123628	0.17155	-0.289144	0.178445	0.0188018	-3.29375e-06	-0.0933213	0.0257586	-0.140509	-0.876119	-0.240595	0.0810289	-2.54376e-06	-0.0336411	0.0488504	-0.00917109	-0.784387	-0.266705	-0.232539	1.91861	1.86585	0.0750904	0.0825441	-0.511748	-0.221944	-0.0554527	2.29965	1.78114	0.1	0.0919909
1.24	-0.128139	-0.0144747	-0.141023	1.02379	1.04136	-0.334398	0.532353	0.128199	0.169261	-0.306958	0.169479	0.0188018	-3.29375e-06	-0.0647902	0.00929008	-0.153321	-0.972591	-0.217542	0.0810289	-2.54376e-06	-0.0424445	0.0537452	-0.00223359	-0.767406	-0.272308	-0.229808	1.9218	1.86568	0.0750904	0.0825441	-0.512795	-0.219988	-0.0478949	2.2746	1.79424	0.1	0.0919909
1.25	-0.124233	-0.0185151	-0.139669	1.02282	1.03505	-0.334231	0.532645	0.134405	0.164346	-0.341271	0.159682	0.0188018	-3.29375e-06	-0.0321043	-0.0112802	-0.167939	-1.0713	-0.193794	0.0810289	-2.54376e-06	-0.0512123	0.0597222	0.0054999	-0.747163	-0.279208	-0.225495	1.92143	1.86363	0.0750904	0.0825441	-0.51301	-0.217265	-0.0411545	2.24445	1.81033	0.1	0.0919909
1.26	-0.120723	-0.0234802	-0.13783	1.02149	1.02787	-0.334044	0.536454	0.142182	0.158163	-0.390572	0.152152	0.0188018	-3.29375e-06	0.00409412	-0.0348225	-0.182766	-1.16994	-0.169077	0.0810289	-2.54376e-06	-0.0602428	0.0663936	0.0140171	-0.723171	-0.28716	-0.219424	1.91657	1.85973	0.0750904	0.0825441	-0.512108	-0.213898	-0.0351408	2.20873	1.82875	0.1	0.0919909
1.27	-0.117277	-0.0289634	-0.135515	1.01978	1.02009	-0.333883	0.542759	0.151223	0.151934	-0.452323	0.150397	0.0188018	-3.29375e-06	0.0432272	-0.059823	-0.19611	-1.26632	-0.14316	0.0810289	-2.54376e-06	-0.0699069	0.073348	0.0232399	-0.6949	-0.295877	-0.211419	1.90634	1.85434	0.0750904	0.0825441	-0.509819	-0.209944	-0.029783	2.167	1.84871	0.1	0.0919909
1.28	-0.113527	-0.0345335	-0.132689	1.01775	1.01213	-0.333805	0.550022	0.16099	0.146623	-0.522806	0.157404	0.0188018	-3.29375e-06	0.0848599	-0.0845119	-0.206332	-1.35832	-0.116126	0.0810289	-2.54376e-06	-0.0805069	0.0801729	0.0329875	-0.661885	-0.305062	-0.2013	1.89017	1.84807	0.0750904	0.0825441	-0.506009	-0.205413	-0.0250738	2.11901	1.86926	0.1	0.0919909
1.29	-0.109255	-0.0397818	-0.12928	1.01547	1.00447	-0.333859	0.556301	0.170744	0.142835	-0.597331	0.174827	0.0188018	-3.29375e-06	0.128693	-0.107055	-0.212073	-1.44404	-0.0884568	0.0810289	-2.54376e-06	-0.0921838	0.0864421	0.0429766	-0.623878	-0.314412	-0.188917	1.86793	1.84178	0.0750904	0.0825441	-0.500792	-0.200317	-0.0210819	2.06505	1.88926	0.1	0.0919909
1.3	-0.104438	-0.0443015	-0.12519	1.01297	0.997428	-0.334073	0.559532	0.179654	0.140812	-0.67073	0.202604	0.0188018	-3.29375e-06	0.174538	-0.12581	-0.212468	-1.52174	-0.060936	0.0810289	-2.54376e-06	-0.104808	0.0917594	0.0528752	-0.581031	-0.323635	-0.174228	1.84024	1.83637	0.0750904	0.0825441	-0.494603	-0.194733	-0.0179273	2.00617	1.90739	0.1	0.0919909
1.31	-0.0992617	-0.0477219	-0.12033	1.01027	0.991184	-0.334459	0.557853	0.186932	0.140526	-0.738021	0.239089	0.0188018	-3.29375e-06	0.222237	-0.139553	-0.207303	-1.58992	-0.0344465	0.0810289	-2.54376e-06	-0.117948	0.0957904	0.0623911	-0.534037	-0.332436	-0.157417	1.80856	1.83252	0.0750904	0.0825441	-0.488201	-0.18887	-0.0157307	1.94436	1.92223	0.1	0.0919909
1.32	-0.0941163	-0.0497664	-0.114644	1.00743	0.985907	-0.335016	0.549851	0.191927	0.141774	-0.795011	0.281539	0.0188018	-3.29375e-06	0.271554	-0.147635	-0.197072	-1.64732	-0.00977534	0.0810289	-2.54376e-06	-0.130945	0.0982764	0.0713624	-0.484189	-0.340513	-0.138996	1.77521	1.83062	0.0750904	0.0825441	-0.482587	-0.183084	-0.0145587	1.88252	1.93238	0.1	0.0919909
1.33	-0.089419	-0.050272	-0.108155	1.00456	0.981799	-0.335719	0.53471	0.194178	0.144261	-0.838676	0.326661	0.0188018	-3.29375e-06	0.322086	-0.150021	-0.182934	-1.69293	0.0125129	0.0810289	-2.54376e-06	-0.142991	0.0990367	0.0798112	-0.433307	-0.347545	-0.119853	1.74319	1.83065	0.0750904	0.0825441	-0.47889	-0.177853	-0.0143964	1.82424	1.93663	0.1	0.0919909
1.34	-0.0855578	-0.0491644	-0.100982	1.00182	0.979041	-0.336526	0.512182	0.193417	0.147655	-0.867269	0.371041	0.0188018	-3.29375e-06	0.3732	-0.147238	-0.166575	-1.726	0.0321185	0.0810289	-2.54376e-06	-0.15329	0.0979518	0.0879375	-0.38352	-0.353202	-0.101171	1.71579	1.83232	0.0750904	0.0825441	-0.478223	-0.1737	-0.0151645	1.77335	1.93414	0.1	0.0919909
1.35	-0.082827	-0.04645	-0.0933379	0.999339	0.977727	-0.337386	0.482491	0.189544	0.151603	-0.880228	0.411433	0.0188018	-3.29375e-06	0.424017	-0.140231	-0.15	-1.74608	0.0490053	0.0810289	-2.54376e-06	-0.161173	0.0949352	0.096034	-0.336959	-0.357179	-0.0842304	1.69614	1.83524	0.0750904	0.0825441	-0.481548	-0.171087	-0.0167867	1.73342	1.92485	0.1	0.0919909
